# xmcd
#
# Track frame offsets:
#	150
#	23310
#	43614
#	62270
#	79995
#	95716
#	116670
#	137066
#	156357
#	174259
#	191238
#	214341
#	232511
#	252685
#	268210
#	287346
#	308347
#	331051
#	343637
#
# Disc length: 4729 seconds
#
# Revision: 0
# Processed by: cddbd v1.5.1PL0 Copyright (c) Steve Scherf et al.
# Submitted via: dBpowerAMP V4.0
#
DISCID=04127713
DTITLE=Herbert Grönemeyer - Nackt Im Wind
DYEAR=1900
DGENRE=
TTITLE0=Nackt im Wind
TTITLE1=Alkohol
TTITLE2=Da Da Da
TTITLE3=Flugzeuge im Bauch
TTITLE4=Halt mich
TTITLE5=Herbsterwachen
TTITLE6=Ich hab Dich lieb
TTITLE7=Ich will mehr
TTITLE8=Kein Verlust
TTITLE9=Keine Heimat
TTITLE10=Land Unter
TTITLE11=Männer
TTITLE12=Marie (english version)
TTITLE13=siebter Sinn
TTITLE14=Viel zu viel
TTITLE15=Was Soll Das
TTITLE16=Ich dreh mich um dich (live)
TTITLE17=Mambo
TTITLE18=Kinder an die Macht
EXTD=
EXTT0=
EXTT1=
EXTT2=
EXTT3=
EXTT4=
EXTT5=
EXTT6=
EXTT7=
EXTT8=
EXTT9=
EXTT10=
EXTT11=
EXTT12=
EXTT13=
EXTT14=
EXTT15=
EXTT16=
EXTT17=
EXTT18=
PLAYORDER=
